<svg xmlns="http://www.w3.org/2000/svg" xmlns:xlink="http://www.w3.org/1999/xlink" width="500" zoomAndPan="magnify" viewBox="0 0 375 374.999991" height="500" preserveAspectRatio="xMidYMid meet" version="1.0"><path fill="#1400ff" d="M 160.75 107.523438 L 214.066406 54.207031 C 214.066406 54.207031 267.382812 0.886719 320.699219 54.207031 C 374.019531 107.523438 320.699219 160.839844 320.699219 160.839844 L 249.609375 231.929688 C 249.609375 231.929688 196.292969 285.25 142.976562 231.929688 C 132.980469 221.933594 126.785156 208.648438 126.785156 208.648438 L 156.582031 178.898438 C 156.582031 178.898438 155.382812 191.019531 169.632812 205.273438 C 169.632812 205.273438 196.292969 231.929688 222.953125 205.273438 L 294.042969 134.183594 C 294.042969 134.183594 320.699219 107.523438 294.042969 80.863281 C 267.382812 54.207031 240.722656 80.863281 240.722656 80.863281 L 207.585938 114 C 207.585938 114 191.113281 100.484375 157.414062 110.855469 Z M 160.75 107.523438 " fill-opacity="1" fill-rule="nonzero"/><path fill="#1400ff" d="M 212.6875 267.476562 L 159.371094 320.792969 C 159.371094 320.792969 106.054688 374.113281 52.734375 320.792969 C -0.582031 267.476562 52.734375 214.160156 52.734375 214.160156 L 123.824219 143.070312 C 123.824219 143.070312 177.144531 89.75 230.460938 143.070312 C 240.457031 153.066406 246.652344 166.351562 246.652344 166.351562 L 216.847656 196.109375 C 216.847656 196.109375 218.046875 183.980469 203.792969 169.726562 C 203.792969 169.726562 177.132812 143.070312 150.476562 169.726562 L 79.386719 240.816406 C 79.386719 240.816406 52.726562 267.476562 79.386719 294.136719 C 106.042969 320.792969 132.703125 294.136719 132.703125 294.136719 L 165.839844 261 C 165.839844 261 182.316406 274.515625 216.011719 264.144531 Z M 212.6875 267.476562 " fill-opacity="1" fill-rule="nonzero"/></svg>