<svg xmlns="http://www.w3.org/2000/svg" xmlns:xlink="http://www.w3.org/1999/xlink" width="500" zoomAndPan="magnify" viewBox="0 0 375 374.999991" height="500" preserveAspectRatio="xMidYMid meet" version="1.0"><path fill="#1400ff" d="M 176.546875 152.378906 L 201.289062 127.636719 C 201.289062 127.636719 226.027344 102.898438 250.765625 127.636719 C 275.503906 152.378906 250.765625 177.117188 250.765625 177.117188 L 217.78125 210.101562 C 217.78125 210.101562 193.039062 234.84375 168.300781 210.101562 C 163.664062 205.464844 160.789062 199.300781 160.789062 199.300781 L 174.613281 185.496094 C 174.613281 185.496094 174.058594 191.121094 180.671875 197.734375 C 180.671875 197.734375 193.039062 210.101562 205.410156 197.734375 L 238.394531 164.746094 C 238.394531 164.746094 250.765625 152.378906 238.394531 140.007812 C 226.027344 127.636719 213.65625 140.007812 213.65625 140.007812 L 198.28125 155.382812 C 198.28125 155.382812 190.636719 149.113281 175 153.925781 Z M 176.546875 152.378906 " fill-opacity="1" fill-rule="nonzero"/><path fill="#1400ff" d="M 200.648438 226.597656 L 175.910156 251.335938 C 175.910156 251.335938 151.167969 276.074219 126.429688 251.335938 C 101.691406 226.597656 126.429688 201.855469 126.429688 201.855469 L 159.414062 168.871094 C 159.414062 168.871094 184.15625 144.132812 208.894531 168.871094 C 213.53125 173.507812 216.40625 179.671875 216.40625 179.671875 L 202.578125 193.480469 C 202.578125 193.480469 203.132812 187.855469 196.519531 181.242188 C 196.519531 181.242188 184.152344 168.871094 171.78125 181.242188 L 138.796875 214.226562 C 138.796875 214.226562 126.425781 226.597656 138.796875 238.964844 C 151.164062 251.335938 163.535156 238.964844 163.535156 238.964844 L 178.910156 223.589844 C 178.910156 223.589844 186.554688 229.863281 202.191406 225.050781 Z M 200.648438 226.597656 " fill-opacity="1" fill-rule="nonzero"/></svg>