<?xml version="1.0" encoding="iso-8859-1"?>
<!-- Uploaded to: SVG Repo, www.svgrepo.com, Transformed by: SVG Repo Mixer Tools -->
<svg height="800px" width="800px" version="1.1" id="Layer_1" xmlns="http://www.w3.org/2000/svg" xmlns:xlink="http://www.w3.org/1999/xlink" 
	 viewBox="0 0 512 512" xml:space="preserve">
<polygon style="fill:#85C9FF;" points="512,178.746 506.761,184.518 284.975,428.744 258.008,458.441 257.422,459.089 
	257.401,459.068 256.178,457.751 254.829,456.276 225.979,424.875 5.103,184.518 0,178.976 17.546,153.148 70.467,75.288 
	85.671,52.911 423.265,52.911 440.978,78.038 493.952,153.148 "/>
<polygon style="fill:#00A6FF;" points="512,178.746 506.761,184.518 284.975,428.744 258.008,458.441 257.422,459.089 
	257.401,459.068 257.401,52.911 423.265,52.911 440.978,78.038 493.952,153.148 "/>
<path style="fill:#D7E9FF;" d="M493.952,153.148h-86.382l33.409-75.11l-17.714-25.127h-5.427l-42.329,95.156l-97.08-95.156h-42.046
	l-100.018,93.347L94.842,52.911h-9.171L70.467,75.288l34.622,77.86H17.546L0,178.976l5.103,5.542H119.06l106.919,240.357
	l28.85,31.401l1.349,1.474l1.223,1.318l0.021,0.021l0.586-0.648l26.968-29.697L393.62,184.518h113.141l5.239-5.772L493.952,153.148z
	 M257.401,76.229l0.01-0.01l77.85,76.93H174.396L257.401,76.229z M257.401,415.935L153.389,184.518h205.902L257.401,415.935z"/>
<polygon style="fill:#BBDDFF;" points="512,178.746 506.761,184.518 393.62,184.518 284.975,428.744 258.008,458.441 
	257.422,459.089 257.401,459.068 257.401,415.935 359.291,184.518 257.401,184.518 257.401,153.148 335.262,153.148 257.412,76.219 
	257.401,76.229 257.401,52.911 278.43,52.911 375.509,148.066 417.838,52.911 423.265,52.911 440.978,78.038 407.569,153.148 
	493.952,153.148 "/>
</svg>